<?xml version="1.0" encoding="UTF-8" standalone="no"?>
<!DOCTYPE svg PUBLIC "-//W3C//DTD SVG 1.1//EN" "http://www.w3.org/Graphics/SVG/1.1/DTD/svg11.dtd">
<svg width="100%" height="100%" viewBox="0 0 95 95" version="1.1" xmlns="http://www.w3.org/2000/svg" xmlns:xlink="http://www.w3.org/1999/xlink" xml:space="preserve" style="fill-rule:evenodd;clip-rule:evenodd;stroke-linejoin:round;stroke-miterlimit:2;">
    <g transform="matrix(4.16667,0,0,4.16667,47.2441,47.2441)">
        <g transform="matrix(1,0,0,1,-8,-10)">
            <clipPath id="_clip1">
                <rect x="0" y="0" width="16" height="20"/>
            </clipPath>
            <g clip-path="url(#_clip1)">
                <g transform="matrix(1,0,0,1,-4,-2)">
                    <g id="Icons">
                        <g id="Outlined">
                            <g id="Places">
                                <g id="Outlined---Places---kitchen">
                                    <g>
                                        <path id="Path" d="M0,0L24,0L24,24L0,24L0,0Z" style="fill:none;"/>
                                        <path id="🔹-Icon-Color" d="M8,5L10,5L10,8L8,8L8,5ZM8,12L10,12L10,17L8,17L8,12ZM18,2.01L6,2C4.9,2 4,2.89 4,4L4,20C4,21.1 4.9,22 6,22L18,22C19.1,22 20,21.1 20,20L20,4C20,2.89 19.1,2.01 18,2.01ZM18,20L6,20L6,10.98L18,10.98L18,20ZM18,9L6,9L6,4L18,4L18,9Z" style="fill:rgb(29,29,29);"/>
                                    </g>
                                </g>
                            </g>
                        </g>
                    </g>
                </g>
            </g>
        </g>
    </g>
</svg>
