<?xml version="1.0" encoding="UTF-8" standalone="no"?>
<!DOCTYPE svg PUBLIC "-//W3C//DTD SVG 1.1//EN" "http://www.w3.org/Graphics/SVG/1.1/DTD/svg11.dtd">
<svg width="100%" height="100%" viewBox="0 0 95 95" version="1.1" xmlns="http://www.w3.org/2000/svg" xmlns:xlink="http://www.w3.org/1999/xlink" xml:space="preserve" style="fill-rule:evenodd;clip-rule:evenodd;stroke-linejoin:round;stroke-miterlimit:2;">
    <g transform="matrix(4.16667,0,0,4.16667,47.2441,47.2441)">
        <g transform="matrix(1,0,0,1,-7,-7)">
            <clipPath id="_clip1">
                <rect x="0" y="0" width="14" height="14"/>
            </clipPath>
            <g clip-path="url(#_clip1)">
                <g transform="matrix(1,0,0,1,-5,-5)">
                    <g id="Icons">
                        <g id="Outlined">
                            <g id="Navigation">
                                <g id="Outlined---Navigation---fullscreen_exit">
                                    <g>
                                        <path id="Path" d="M0,0L24,0L24,24L0,24L0,0Z" style="fill:none;"/>
                                        <path id="🔹-Icon-Color" d="M5,16L8,16L8,19L10,19L10,14L5,14L5,16ZM8,8L5,8L5,10L10,10L10,5L8,5L8,8ZM14,19L16,19L16,16L19,16L19,14L14,14L14,19ZM16,8L16,5L14,5L14,10L19,10L19,8L16,8Z"/>
                                    </g>
                                </g>
                            </g>
                        </g>
                    </g>
                </g>
            </g>
        </g>
    </g>
</svg>
