<?xml version="1.0" encoding="UTF-8" standalone="no"?>
<!DOCTYPE svg PUBLIC "-//W3C//DTD SVG 1.1//EN" "http://www.w3.org/Graphics/SVG/1.1/DTD/svg11.dtd">
<svg width="100%" height="100%" viewBox="0 0 319 319" version="1.1" xmlns="http://www.w3.org/2000/svg" xmlns:xlink="http://www.w3.org/1999/xlink" xml:space="preserve" style="fill-rule:evenodd;clip-rule:evenodd;stroke-linecap:round;stroke-linejoin:round;stroke-miterlimit:10;">
    <g transform="matrix(1,0,0,1,-3.4406,0.534193)">
        <g transform="matrix(7.05613,0,0,6.99281,128.971,250.035)">
            <path d="M0,-11.216L-7.216,-11.216C-8.321,-11.216 -9.216,-10.32 -9.216,-9.216L-9.216,-2C-9.216,-0.895 -8.321,0 -7.216,0L0,0C1.104,0 2,-0.895 2,-2L2,-9.216C2,-10.32 1.104,-11.216 0,-11.216Z" style="fill:none;fill-rule:nonzero;stroke:#5D5D61;stroke-width:1.5px;"/>
        </g>
        <g transform="matrix(7.05613,0,0,6.99281,247.725,250.035)">
            <path d="M0,-11.216L-7.216,-11.216C-8.321,-11.216 -9.216,-10.32 -9.216,-9.216L-9.216,-2C-9.216,-0.895 -8.321,0 -7.216,0L0,0C1.104,0 2,-0.895 2,-2L2,-9.216C2,-10.32 1.104,-11.216 0,-11.216Z" style="fill:none;fill-rule:nonzero;stroke:#5D5D61;stroke-width:1.5px;"/>
        </g>
        <g transform="matrix(7.05613,0,0,6.99281,247.725,132.388)">
            <path d="M0,-11.216L-7.216,-11.216C-8.321,-11.216 -9.216,-10.32 -9.216,-9.216L-9.216,-2C-9.216,-0.895 -8.321,0 -7.216,0L0,0C1.104,0 2,-0.895 2,-2L2,-9.216C2,-10.32 1.104,-11.216 0,-11.216Z" style="fill:none;fill-rule:nonzero;stroke:#5D5D61;stroke-width:1.5px;"/>
        </g>
        <g transform="matrix(7.05613,0,0,6.99281,128.971,132.388)">
            <path d="M0,-11.216L-7.216,-11.216C-8.321,-11.216 -9.216,-10.32 -9.216,-9.216L-9.216,-2C-9.216,-0.895 -8.321,0 -7.216,0L0,0C1.104,0 2,-0.895 2,-2L2,-9.216C2,-10.32 1.104,-11.216 0,-11.216Z" style="fill:none;fill-rule:nonzero;stroke:#5D5D61;stroke-width:1.5px;"/>
        </g>
    </g>
</svg>
