<?xml version="1.0" encoding="UTF-8" standalone="no"?>
<!DOCTYPE svg PUBLIC "-//W3C//DTD SVG 1.1//EN" "http://www.w3.org/Graphics/SVG/1.1/DTD/svg11.dtd">
<svg width="100%" height="100%" viewBox="0 0 95 95" version="1.1" xmlns="http://www.w3.org/2000/svg" xmlns:xlink="http://www.w3.org/1999/xlink" xml:space="preserve" style="fill-rule:evenodd;clip-rule:evenodd;stroke-linecap:round;stroke-linejoin:round;stroke-miterlimit:10;">
    <g transform="matrix(4.16667,0,0,4.16667,47.1996,42.3741)">
        <g transform="matrix(1,0,0,1,-89,-89)">
            <g transform="matrix(4.16667,0,0,4.16667,138.666,30.166)">
                <path d="M0,28.04L-24.04,28.04C-25.145,28.04 -26.04,27.144 -26.04,26.04L-26.04,2C-26.04,0.895 -25.145,0 -24.04,0L0,0C1.105,0 2,0.895 2,2L2,26.04C2,27.144 1.105,28.04 0,28.04Z" style="fill:none;fill-rule:nonzero;stroke:rgb(26,26,26);stroke-width:1.5px;"/>
            </g>
        </g>
    </g>
    <g transform="matrix(4.16667,0,0,4.16667,22.264,67.9958)">
        <g transform="matrix(1,0,0,1,-89,-89)">
            <g transform="matrix(4.16667,0,0,4.16667,138.666,30.166)">
                <path d="M0,28.04L-24.04,28.04C-25.145,28.04 -26.04,27.144 -26.04,26.04L-26.04,2C-26.04,0.895 -25.145,0 -24.04,0L0,0C1.105,0 2,0.895 2,2L2,26.04C2,27.144 1.105,28.04 0,28.04Z" style="fill:none;fill-rule:nonzero;stroke:rgb(26,26,26);stroke-width:1.5px;"/>
            </g>
        </g>
    </g>
    <g transform="matrix(4.16667,0,0,4.16667,47.2441,47.2441)">
        <g transform="matrix(1,0,0,1,-9,-9)">
            <clipPath id="_clip1">
                <rect x="0" y="0" width="18" height="18"/>
            </clipPath>
            <g clip-path="url(#_clip1)">
                <g transform="matrix(1,0,0,1,-3,-3)">
                    <g id="Icons">
                        <g id="Outlined">
                            <g id="Action">
                                <g id="Outlined---Action---all_inbox">
                                    <g>
                                        <path id="Path" d="M0,0L24,0L24,24L0,24L0,0Z" style="fill:none;"/>
                                        <path id="🔹-Icon-Color" d="M19,3L5,3C3.9,3 3,3.9 3,5L3,12C3,13.1 3.9,14 5,14L19,14C20.1,14 21,13.1 21,12L21,5C21,3.9 20.1,3 19,3ZM5,10L8.13,10C8.34,10.78 8.8,11.47 9.4,12L5,12L5,10ZM19,12L14.6,12C15.2,11.47 15.66,10.78 15.87,10L19,10L19,12ZM19,8L14,8L14,9C14,10.07 13.07,11 12,11C10.93,11 10,10.07 10,9L10,8L5,8L5,5L19,5L19,8ZM21,15L14,15L14,16C14,16.47 13.81,16.9 13.52,17.25C13.15,17.7 12.6,18 12,18C11.4,18 10.85,17.7 10.48,17.25C10.19,16.9 10,16.47 10,16L10,15L3,15L3,19C3,20.1 3.9,21 5,21L19,21C20.1,21 21,20.1 21,19L21,15ZM5,17L8.13,17C8.15,17.09 8.19,17.17 8.22,17.25C8.46,17.93 8.87,18.53 9.4,19L5,19L5,17ZM19,19L14.6,19C15.14,18.53 15.55,17.93 15.78,17.25C15.81,17.17 15.85,17.09 15.87,17L19,17L19,19Z"/>
                                    </g>
                                </g>
                            </g>
                        </g>
                    </g>
                </g>
            </g>
        </g>
    </g>
</svg>
