<?xml version="1.0" encoding="UTF-8" standalone="no"?>
<!DOCTYPE svg PUBLIC "-//W3C//DTD SVG 1.1//EN" "http://www.w3.org/Graphics/SVG/1.1/DTD/svg11.dtd">
<svg width="100%" height="100%" viewBox="0 0 178 178" version="1.1" xmlns="http://www.w3.org/2000/svg" xmlns:xlink="http://www.w3.org/1999/xlink" xml:space="preserve" style="fill-rule:evenodd;clip-rule:evenodd;stroke-linecap:round;stroke-linejoin:round;stroke-miterlimit:10;">
    <g transform="matrix(4.16667,0,0,4.16667,88.5848,147.001)">
        <path d="M5.229,-28.041L-5.229,-28.041C-7.106,-28.041 -8.628,-26.519 -8.628,-24.642L-8.628,-3.399C-8.628,-1.522 -7.106,0 -5.229,0L5.229,0C7.106,0 8.627,-1.522 8.627,-3.399L8.627,-24.642C8.627,-26.519 7.106,-28.041 5.229,-28.041Z" style="fill:none;fill-rule:nonzero;stroke:rgb(26,26,26);stroke-width:1.5px;"/>
    </g>
    <g transform="matrix(4.16667,0,0,4.16667,79.5848,51.1889)">
        <path d="M0,0L4.314,0" style="fill:none;fill-rule:nonzero;stroke:rgb(26,26,26);stroke-width:1.5px;"/>
    </g>
    <g transform="matrix(0,-4.16667,-4.16667,0,88.5848,120.443)">
        <path d="M-1.275,-1.274C-1.979,-1.274 -2.549,-0.703 -2.549,0C-2.549,0.705 -1.979,1.275 -1.275,1.275C-0.571,1.275 0,0.705 0,0C0,-0.703 -0.571,-1.274 -1.275,-1.274" style="fill-rule:nonzero;"/>
    </g>
</svg>
