<?xml version="1.0" encoding="UTF-8" standalone="no"?>
<!DOCTYPE svg PUBLIC "-//W3C//DTD SVG 1.1//EN" "http://www.w3.org/Graphics/SVG/1.1/DTD/svg11.dtd">
<svg width="100%" height="100%" viewBox="0 0 95 95" version="1.1" xmlns="http://www.w3.org/2000/svg" xmlns:xlink="http://www.w3.org/1999/xlink" xml:space="preserve" style="fill-rule:evenodd;clip-rule:evenodd;stroke-linecap:round;stroke-linejoin:round;stroke-miterlimit:10;">
    <g transform="matrix(4.16667,0,0,4.16667,47.1996,42.3741)">
        <g transform="matrix(1,0,0,1,-89,-89)">
            <g transform="matrix(4.16667,0,0,4.16667,138.666,30.166)">
                <path d="M0,28.04L-24.04,28.04C-25.145,28.04 -26.04,27.144 -26.04,26.04L-26.04,2C-26.04,0.895 -25.145,0 -24.04,0L0,0C1.105,0 2,0.895 2,2L2,26.04C2,27.144 1.105,28.04 0,28.04Z" style="fill:none;fill-rule:nonzero;stroke:rgb(26,26,26);stroke-width:1.5px;"/>
            </g>
        </g>
    </g>
    <g transform="matrix(4.16667,0,0,4.16667,22.264,67.9958)">
        <g transform="matrix(1,0,0,1,-89,-89)">
            <g transform="matrix(4.16667,0,0,4.16667,138.666,30.166)">
                <path d="M0,28.04L-24.04,28.04C-25.145,28.04 -26.04,27.144 -26.04,26.04L-26.04,2C-26.04,0.895 -25.145,0 -24.04,0L0,0C1.105,0 2,0.895 2,2L2,26.04C2,27.144 1.105,28.04 0,28.04Z" style="fill:none;fill-rule:nonzero;stroke:rgb(26,26,26);stroke-width:1.5px;"/>
            </g>
        </g>
    </g>
    <g transform="matrix(4.16667,0,0,4.16667,61.7728,42.3741)">
        <g transform="matrix(1,0,0,1,-89,-89)">
            <g transform="matrix(4.16667,0,0,4.16667,88.5848,147.001)">
                <path d="M5.229,-28.041L-5.229,-28.041C-7.106,-28.041 -8.628,-26.519 -8.628,-24.642L-8.628,-3.399C-8.628,-1.522 -7.106,0 -5.229,0L5.229,0C7.106,0 8.627,-1.522 8.627,-3.399L8.627,-24.642C8.627,-26.519 7.106,-28.041 5.229,-28.041Z" style="fill:none;fill-rule:nonzero;stroke:rgb(26,26,26);stroke-width:1.5px;"/>
            </g>
        </g>
    </g>
    <g transform="matrix(4.16667,0,0,4.16667,47.1996,47.2441)">
        <g transform="matrix(1,0,0,1,-11,-8)">
            <clipPath id="_clip1">
                <rect x="0" y="0" width="22" height="16"/>
            </clipPath>
            <g clip-path="url(#_clip1)">
                <g transform="matrix(1,0,0,1,-1,-4)">
                    <g id="Icons">
                        <g id="Outlined">
                            <g id="Notification">
                                <g id="Outlined---Notification---wifi">
                                    <g>
                                        <path id="Shape" d="M0,0L24,0L24,24L0,24L0,0ZM0,0L24,0L24,24L0,24L0,0Z" style="fill:none;"/>
                                        <path id="🔹-Icon-Color" d="M1,9L3,11C7.97,6.03 16.03,6.03 21,11L23,9C16.93,2.93 7.08,2.93 1,9ZM9,17L12,20L15,17C13.35,15.34 10.66,15.34 9,17ZM5,13L7,15C9.76,12.24 14.24,12.24 17,15L19,13C15.14,9.14 8.87,9.14 5,13Z" style="fill:rgb(29,29,29);"/>
                                    </g>
                                </g>
                            </g>
                        </g>
                    </g>
                </g>
            </g>
        </g>
    </g>
</svg>
